<?xml version="1.0" encoding="utf-8"?>
<!-- Generator: Adobe Illustrator 24.1.2, SVG Export Plug-In . SVG Version: 6.00 Build 0)  -->
<svg version="1.1" id="Layer_1" xmlns="http://www.w3.org/2000/svg" xmlns:xlink="http://www.w3.org/1999/xlink" x="0px" y="0px"
	 viewBox="0 0 595.3 595.3" style="enable-background:new 0 0 595.3 595.3;" xml:space="preserve">
<style type="text/css">
	.st0{fill:#FFFFFF;}
	.st1{fill:#DADADA;}
	.st2{opacity:0.29;}
	.st3{opacity:0.65;clip-path:url(#SVGID_2_);fill:url(#SVGID_3_);}
	.st4{clip-path:url(#SVGID_5_);}
	.st5{fill:#575756;}
	.st6{fill:#BE1622;}
	.st7{fill:#706F6F;}
	.st8{fill:#0F0F0F;}
	.st9{fill:#E6332A;}
	.st10{fill:#3C3C3B;}
	.st11{fill:#5C5C5C;}
	.st12{fill:#1D1D1B;}
	.st13{fill:#878787;}
	.st14{fill:#9D9D9C;}
	.st15{fill:#1D71B8;}
	.st16{fill:url(#SVGID_6_);}
	.st17{clip-path:url(#SVGID_8_);}
	.st18{fill:#F39200;}
	.st19{fill:#FFA400;}
	.st20{opacity:0.4;fill:#FFFFFF;}
	.st21{opacity:0.2;fill:#1D1D1B;}
	.st22{fill:#F9B233;}
	.st23{fill:#F9C433;}
	.st24{clip-path:url(#SVGID_10_);}
	.st25{fill:url(#SVGID_11_);}
	.st26{clip-path:url(#SVGID_13_);}
	.st27{fill:url(#SVGID_14_);}
	.st28{clip-path:url(#SVGID_16_);}
	.st29{clip-path:url(#SVGID_18_);}
	.st30{fill:#008D36;}
	.st31{fill:#006633;}
	.st32{opacity:0.2;clip-path:url(#SVGID_18_);fill:#1D1D1B;}
	.st33{clip-path:url(#SVGID_20_);}
	.st34{fill:#FFED00;}
</style>
<g>
	<path class="st6" d="M540.3,595.3H54.9C24.6,595.3,0,570.7,0,540.3V54.9C0,24.6,24.6,0,54.9,0h485.4c30.3,0,54.9,24.6,54.9,54.9
		v485.4C595.3,570.7,570.7,595.3,540.3,595.3z"/>
	<linearGradient id="SVGID_2_" gradientUnits="userSpaceOnUse" x1="340.3673" y1="67.8607" x2="340.3673" y2="595.2756">
		<stop  offset="0.1034" style="stop-color:#E94E1B"/>
		<stop  offset="1" style="stop-color:#E94E1B;stop-opacity:0"/>
	</linearGradient>
	<path style="fill:url(#SVGID_2_);" d="M595.3,200.8C547.2,121.1,459.8,67.9,360,67.9c-151.6,0-274.6,122.9-274.6,274.6
		c0,113.6,69,211.1,167.4,252.8h214.4c53.5-22.7,98.3-61.9,128-111.2V200.8z"/>
	<g>
		<defs>
			<path id="SVGID_12_" d="M540.3,595.3H54.9C24.6,595.3,0,570.7,0,540.3V54.9C0,24.6,24.6,0,54.9,0h485.4
				c30.3,0,54.9,24.6,54.9,54.9v485.4C595.3,570.7,570.7,595.3,540.3,595.3z"/>
		</defs>
		<clipPath id="SVGID_3_">
			<use xlink:href="#SVGID_12_"  style="overflow:visible;"/>
		</clipPath>
		<g style="clip-path:url(#SVGID_3_);">
			<g>
				<path class="st0" d="M538.9,78.5c-0.9,0.3-1.9,0.4-2.9,0.4c-125.7-9-229.8,60.8-230.8,61.5c-3.3,2.2-7.7,1.4-10-1.9
					c-2.2-3.3-1.4-7.7,1.9-10c4.4-3,109.1-73.4,240-64c4,0.3,6.9,3.7,6.6,7.7C543.5,75.2,541.6,77.6,538.9,78.5z"/>
				<path class="st0" d="M201.4,773c-3,1-6.4,0-8.3-2.8c-80.5-119.3-91.2-232.8-91.6-237.6c-0.3-4,2.6-7.4,6.5-7.8
					c4-0.3,7.4,2.6,7.8,6.5c0.1,1.1,10.9,114.8,89.2,230.8c2.2,3.3,1.4,7.8-1.9,10C202.6,772.5,202,772.8,201.4,773z"/>
				<path class="st5" d="M332.5,155.4l-5.6-24.2l-6.6-3.2l-69.3,43.6c0,0,26.4,25.1,22.8,43.7c-3.6,18.6-75.2,124.6-75.2,124.6
					S176,429,169,438.7c-6.9,9.7-26.7,27.7-44.5,28c-17.8,0.3-28.9,0.5-28.9,0.5l16.3,79.6l31.7-10.6c0,0-5.5-27.1,14-35.5
					c14.3-6.2,27.2-5.6,33-4.8c2,0.3,3.9-0.8,4.8-2.6l18.4-37.6l13.7-84.6l20.3,8.5l4.2-1.2c2.9-0.8,5.4-2.9,6.7-5.6l20.7-42.4
					c0,0-1.2-20.1,13.8-50.8c15.8-32.5,27-41.7,27-41.7l6.4-15c0.6-1.5,0.3-3.1-0.8-4.3c-4.4-4.5-15.3-17-15.8-32.1
					c-0.5-14.8,13.9-23.3,20.4-26.4C332,159.2,332.9,157.3,332.5,155.4z M157.6,488c-9.2,3.2-16.7,9.3-18.9,7.8
					c-1.8-1.3-4.8-18-4.4-19.9c0.4-1.9,4.8-1.1,9.2-2.3c7.7-2.2,12.7-5.4,14.8-7.1c2.1-1.7,16.4,14.2,16.6,16.7
					C175,484.3,170.5,483.5,157.6,488z M276.4,280.6l-10.4,29c-0.6,1.6-3,2.1-5,0.9l-17.3-9.9c-1.8-1-2.6-2.9-1.8-4.2l15.6-25.8
					c0.8-1.3,2.9-1.6,4.8-0.6l12,6.6C276,277.7,276.8,279.3,276.4,280.6z M298.8,243l-14.4,23.7c-1.1,1.8-3.5,2.4-5.3,1.4l-11.2-6.2
					c-2-1.1-2.7-3.6-1.5-5.5l14.4-23.7c1.1-1.8,3.5-2.4,5.3-1.4l11.2,6.2C299.3,238.5,300,241,298.8,243z M306.7,214.7
					c-2.5,0.4-22.2,0.1-22.1-2.6c0.1-2.7,0.6-6.7-2.4-14c-1.7-4.2-5-10-4.8-10.7c0.6-1.8,16.2-9.4,18.3-8.8
					c2.5,0.8,1.6,10.9,4.6,20.1C302,203.8,309.2,214.3,306.7,214.7z"/>
				<path class="st0" d="M535.3,76.8c-0.9,0.3-1.9,0.4-2.9,0.4c-125.7-9-229.8,60.8-230.8,61.5c-3.3,2.2-7.7,1.4-10-1.9
					c-2.2-3.3-1.4-7.7,1.9-10c4.4-3,109.1-73.4,240-64c4,0.3,6.9,3.7,6.6,7.7C539.9,73.4,537.9,75.8,535.3,76.8z"/>
				<path class="st0" d="M197.8,771.2c-3,1-6.4,0-8.3-2.8C109,649.1,98.3,535.6,97.9,530.8c-0.3-4,2.6-7.4,6.5-7.8
					c4-0.3,7.4,2.6,7.8,6.5c0.1,1.1,10.9,114.8,89.2,230.8c2.2,3.3,1.4,7.8-1.9,10C198.9,770.7,198.4,771,197.8,771.2z"/>
				
					<rect x="251.2" y="362.4" transform="matrix(0.8986 0.4388 -0.4388 0.8986 195.3237 -110.9591)" class="st8" width="173" height="9.4"/>
				<path class="st7" d="M325.9,152.1l-5.6-24.2l-75.9,40.3c0,0,26.4,25.1,22.8,43.7s-75.2,124.6-75.2,124.6s-22.6,89.2-29.5,98.8
					c-6.9,9.7-26.7,27.7-44.5,28c-17.8,0.3-28.9,0.5-28.9,0.5l16.3,79.6l31.7-10.6c0,0-5.5-27.1,14-35.5c14.3-6.2,27.2-5.6,33-4.8
					c2,0.3,3.9-0.8,4.8-2.6l18.4-37.6l13.7-84.6l29,6l22.8-46.7c0,0-1.2-20.1,13.8-50.8c15.8-32.5,27-41.7,27-41.7l6.4-15
					c0.6-1.5,0.3-3.1-0.8-4.3c-4.4-4.5-15.3-17-15.8-32.1c-0.5-14.8,14-23.3,20.4-26.4C325.4,156,326.3,154,325.9,152.1z
					 M150.9,484.7c-9.2,3.2-16.7,9.3-18.9,7.8c-1.8-1.3-4.8-18-4.4-19.9c0.4-1.9,4.8-1.1,9.2-2.3c7.7-2.2,12.7-5.4,14.8-7.1
					c2.1-1.7,16.4,14.2,16.6,16.7C168.4,481.1,163.8,480.3,150.9,484.7z M269.7,277.4l-10.4,29c-0.6,1.6-3,2.1-5,0.9l-17.3-9.9
					c-1.8-1-2.6-2.9-1.8-4.2l15.6-25.8c0.8-1.3,2.9-1.6,4.8-0.6l12,6.6C269.3,274.4,270.2,276.1,269.7,277.4z M292.2,239.7
					l-14.4,23.7c-1.1,1.8-3.5,2.4-5.3,1.4l-11.2-6.2c-2-1.1-2.7-3.6-1.5-5.5l14.4-23.7c1.1-1.8,3.5-2.4,5.3-1.4l11.2,6.2
					C292.7,235.3,293.3,237.8,292.2,239.7z M300,211.5c-2.5,0.4-22.2,0.1-22.1-2.6c0.1-2.7,0.6-6.7-2.4-14c-1.7-4.2-5-10-4.8-10.7
					c0.6-1.8,16.2-9.4,18.3-8.8c2.5,0.8,1.6,10.9,4.6,20.1C295.3,200.6,302.5,211.1,300,211.5z"/>
				
					<rect x="21" y="434.5" transform="matrix(0.4403 -0.8979 0.8979 0.4403 -165.1305 607.5681)" class="st0" width="767.5" height="3.4"/>
				<polygon class="st0" points="161.5,737.4 158.6,735.6 537.4,107.7 540.2,109.5 				"/>
				<polygon class="st0" points="228.6,745.8 225.4,744.6 489,58.7 492.2,59.9 				"/>
				<path class="st8" d="M189.8,335.2c-5,3.6-29.1,94.6-29.1,99.1c0,4.5,43,28.5,45.7,27.4c2.7-1.1,7.8-72.7,17.4-79.9
					c9.6-7.1,22.7-0.1,25.6-2.7c2.9-2.6,5.3-12.1,5.3-12.1S191.5,334,189.8,335.2z"/>
				<path class="st8" d="M197.2,338.7c-5,3.6-29.1,94.6-29.1,99.1c0,4.5,43,28.5,45.7,27.4c2.7-1.1,7.8-72.7,17.4-79.9
					c9.6-7.1,22.7-0.1,25.6-2.7c2.9-2.6,5.3-12.1,5.3-12.1S198.8,337.5,197.2,338.7z"/>
				<path class="st8" d="M103.8,547.6l-7.8-0.7c-3.9-0.3-7-3.2-7.6-7l-12.1-73.1c-0.9-5.4,3.6-10.3,9-9.8l12.4,1
					c9.9,0.8,17.9,8.3,19.5,18l8,48.3C127.3,537.2,116.8,548.7,103.8,547.6z"/>
				<path class="st8" d="M313.8,117.5l-5.3-5.8c-2.6-2.8-6.8-3.5-10.2-1.7l-65.1,35.4c-4.8,2.6-5.9,9.1-2.2,13.2l8.5,9.2
					c6.7,7.3,17.5,9.1,26.2,4.3l43-23.4C320.1,142.4,322.6,127.1,313.8,117.5z"/>
				<path class="st8" d="M575.8,92.7c11.4-23.3,1.7-51.5-21.6-62.9c-23.3-11.4-51.5-1.7-62.9,21.6c-11.4,23.3-1.7,51.5,21.6,62.9
					c1.4,0.7,2.8,1,4.2,1.6c8.5,2.4,18.8,1,22.7-5.3c6.2-10.3-5.9-10.8-2.3-15.9c6.1-8.7,24.1-3.4,18.5,6.8
					c-1.9,3.5-3.6,5.3-3.3,7.7c0.3,2.6,4,3.2,6.5,2.2C566,106.8,571.9,100.6,575.8,92.7z M525.8,103c1.4-2.8,4.8-4,7.6-2.6
					c2.8,1.4,4,4.8,2.6,7.6c-1.4,2.8-4.8,4-7.6,2.6C525.6,109.2,524.5,105.8,525.8,103z M506.2,92.4c2-4,6.8-5.7,10.9-3.7
					c4,2,5.7,6.8,3.7,10.9c-2,4-6.8,5.7-10.9,3.7C505.9,101.3,504.3,96.4,506.2,92.4z M499.2,51.7c1.3-1,21.2,11.6,21.2,11.6
					s-1.3,2.9-2,5.9c-1.1,4.5,0.1,9.1,0.1,9.1s-4.7,0.4-10.2,2.5c-6.4,2.5-8.5,5.8-10.8,7.2c-1.6,1-4.8-6.4-4.8-16.9
					C492.8,60.8,497.8,52.8,499.2,51.7z M558.9,40.5C559.4,41,545,57.7,545,57.7c-11.9-6.4-20.1,0.1-21.3,1.2
					c-0.5,0.4-5.5-4.2-18-15c-1.3-1.1,10.3-12.7,27.7-12.5C547.3,31.6,558.5,40,558.9,40.5z M574.5,71.2
					c-0.2,11.9-7.4,26.3-8.7,22.2c-4.5-13.5-14.5-13.9-13.8-15.2c0.6-1.3,3.4-10.2-3.1-17c-0.6-0.7,8.2-7.5,15.6-13.6
					C566.4,46,574.7,59.2,574.5,71.2z"/>
				
					<rect x="354.3" y="375.7" transform="matrix(0.8986 0.4388 -0.4388 0.8986 205.1788 -122.9758)" class="st0" width="28.8" height="13.5"/>
				<path class="st0" d="M90.3,466.2c0.8,2.5-0.5,5.2-2.9,6c-2.5,0.8-5.2-0.5-6-2.9c-0.8-2.5,0.5-5.2,2.9-6
					C86.7,462.4,89.4,463.7,90.3,466.2z"/>
				<path class="st0" d="M245.7,150.5c0.8,2.5-0.5,5.2-2.9,6c-2.5,0.8-5.2-0.5-6-2.9c-0.8-2.5,0.5-5.2,2.9-6
					C242.1,146.7,244.8,148.1,245.7,150.5z"/>
				<path class="st0" d="M102.7,535.9c0.8,2.5-0.5,5.2-2.9,6c-2.5,0.8-5.2-0.5-6-2.9c-0.8-2.5,0.5-5.2,2.9-6
					C99.2,532.1,101.9,533.4,102.7,535.9z"/>
				<circle class="st0" cx="302" cy="119" r="4.7"/>
				<path class="st0" d="M537.7,69.7c0.8,2.5-0.5,5.2-2.9,6c-2.5,0.8-5.2-0.5-6-2.9c-0.8-2.5,0.5-5.2,2.9-6
					C534.2,66,536.9,67.3,537.7,69.7z"/>
				<path class="st0" d="M172,440.5c0-4.5,24-95.5,29.1-99.1c1.2-0.9,35.4,16.5,53.6,25.9c0.1-0.3,0.1-0.4,0.1-0.4s-63.3-33-65-31.7
					c-5,3.6-29.1,94.6-29.1,99.1c0,2.9,18.2,14.1,31.7,21.3C181.9,449.3,172,442.7,172,440.5z"/>
				<circle class="st8" cx="210" cy="332" r="4.6"/>
				<path class="st8" d="M250.2,349.2c0.8,2.4-0.4,5-2.8,5.8c-2.4,0.8-5-0.4-5.8-2.8c-0.8-2.4,0.4-5,2.8-5.8
					C246.7,345.5,249.3,346.8,250.2,349.2z"/>
			</g>
			<path class="st13" d="M301.5,227l32.1,18.7c3,1.8,4.2,5.5,2.6,8.7l-27.5,56.4c-1.5,3.1-5.2,4.6-8.5,3.3l-34.5-13.8
				c-3.6-1.4-5.2-5.6-3.5-9.1l30-61.3C293.8,226.3,298.1,225,301.5,227z"/>
			<path class="st12" d="M302.5,230l29.9,17.5c2.8,1.6,3.9,5.2,2.4,8.2l-26,53.3c-1.4,3-4.9,4.3-7.9,3.1l-32.2-12.8
				c-3.4-1.3-4.8-5.3-3.2-8.6l28.3-57.9C295.4,229.4,299.4,228.2,302.5,230z"/>
			<g>
				<path class="st20" d="M327.9,269.7l5.6-11.4l-63.1,22.2l-5,10.2c-0.2,0.4-0.3,0.8-0.4,1.2C286,284.5,307,277.1,327.9,269.7z"/>
				<path class="st20" d="M318.1,289.7l1.8-3.6c-14.9,5.3-29.8,10.5-44.7,15.7l4,1.6C292.2,298.9,305.2,294.3,318.1,289.7z"/>
				<polygon class="st0" points="329.8,246 324.4,242.8 281.4,258 278.4,264.1 				"/>
				<path class="st20" d="M289.2,242.1l-6.5,13.2l39.3-13.8l-11.7-6.8C303.3,237.1,296.2,239.6,289.2,242.1z"/>
			</g>
			<path class="st0" d="M202.3,368.4c0,0,18.5,14.1,24.9,15.1C227.2,383.4,213.1,384.3,202.3,368.4z"/>
			<path class="st0" d="M198,384.5c0,0,18.5,14.1,24.9,15.1C222.9,399.6,208.8,400.5,198,384.5z"/>
			<path class="st0" d="M194.1,400.9c0,0,18.5,14.1,24.9,15.1C219,416,205,416.9,194.1,400.9z"/>
			<path class="st0" d="M191.1,417.7c0,0,18.5,14.1,24.9,15.1C216,432.8,202,433.7,191.1,417.7z"/>
			<path class="st0" d="M187.9,434.5c0,0,18.5,14.1,24.9,15.1C212.9,449.6,198.8,450.4,187.9,434.5z"/>
		</g>
	</g>
</g>
</svg>
